<svg width="113" height="16" viewBox="0 0 113 16" fill="none" xmlns="http://www.w3.org/2000/svg">
<path d="M16.9852 6.08806C16.9675 6.03458 16.9351 5.98705 16.8916 5.95083C16.848 5.91461 16.795 5.89116 16.7387 5.88313L11.2342 5.09285L8.77255 0.166503C8.74735 0.11649 8.70854 0.074411 8.66046 0.044997C8.61238 0.015583 8.55695 0 8.5004 0C8.44385 0 8.38842 0.015583 8.34035 0.044997C8.29227 0.074411 8.25345 0.11649 8.22826 0.166503L5.76458 5.09386L0.260057 5.88415C0.204035 5.89239 0.151444 5.91589 0.108177 5.95199C0.0649092 5.9881 0.0326741 6.0354 0.015083 6.08858C-0.002508 6.14177 -0.00476003 6.19874 0.00857927 6.25312C0.0219186 6.3075 0.0503222 6.35713 0.0906079 6.39646L4.07522 10.2312L3.1335 15.6486C3.12425 15.7038 3.13075 15.7604 3.15226 15.8122C3.17377 15.864 3.20945 15.9088 3.25529 15.9416C3.30113 15.9745 3.35533 15.9941 3.41182 15.9982C3.4683 16.0024 3.52484 15.9909 3.57509 15.9651L8.49938 13.4086L13.4226 15.9651C13.4729 15.9914 13.5297 16.0032 13.5865 15.9992C13.6432 15.9952 13.6977 15.9756 13.7438 15.9425C13.7898 15.9094 13.8255 15.8642 13.8468 15.8121C13.8681 15.7599 13.8741 15.7029 13.8642 15.6476L12.9235 10.2322L16.9081 6.39545C16.9903 6.31429 17.0211 6.1956 16.9852 6.08705V6.08806Z" fill="#EF9546"/>
<path d="M40.9852 6.08806C40.9675 6.03458 40.9351 5.98705 40.8916 5.95083C40.848 5.91461 40.795 5.89116 40.7387 5.88313L35.2342 5.09285L32.7725 0.166503C32.7474 0.11649 32.7085 0.074411 32.6605 0.044997C32.6124 0.015583 32.557 0 32.5004 0C32.4439 0 32.3884 0.015583 32.3403 0.044997C32.2923 0.074411 32.2535 0.11649 32.2283 0.166503L29.7646 5.09386L24.2601 5.88415C24.204 5.89239 24.1514 5.91589 24.1082 5.95199C24.0649 5.9881 24.0327 6.0354 24.0151 6.08858C23.9975 6.14177 23.9952 6.19874 24.0086 6.25312C24.0219 6.3075 24.0503 6.35713 24.0906 6.39646L28.0752 10.2312L27.1335 15.6486C27.1243 15.7038 27.1308 15.7604 27.1523 15.8122C27.1738 15.864 27.2094 15.9088 27.2553 15.9416C27.3011 15.9745 27.3553 15.9941 27.4118 15.9982C27.4683 16.0024 27.5248 15.9909 27.5751 15.9651L32.4994 13.4086L37.4226 15.9651C37.4729 15.9914 37.5297 16.0032 37.5865 15.9992C37.6432 15.9952 37.6977 15.9756 37.7438 15.9425C37.7898 15.9094 37.8255 15.8642 37.8468 15.8121C37.8681 15.7599 37.8741 15.7029 37.8642 15.6476L36.9235 10.2322L40.9081 6.39545C40.9903 6.31429 41.0211 6.1956 40.9852 6.08705V6.08806Z" fill="#EF9546"/>
<path d="M64.9852 6.08806C64.9675 6.03458 64.9351 5.98705 64.8916 5.95083C64.848 5.91461 64.795 5.89116 64.7387 5.88313L59.2342 5.09285L56.7725 0.166503C56.7474 0.11649 56.7085 0.074411 56.6605 0.044997C56.6124 0.015583 56.557 0 56.5004 0C56.4439 0 56.3884 0.015583 56.3403 0.044997C56.2923 0.074411 56.2535 0.11649 56.2283 0.166503L53.7646 5.09386L48.2601 5.88415C48.204 5.89239 48.1514 5.91589 48.1082 5.95199C48.0649 5.9881 48.0327 6.0354 48.0151 6.08858C47.9975 6.14177 47.9952 6.19874 48.0086 6.25312C48.0219 6.3075 48.0503 6.35713 48.0906 6.39646L52.0752 10.2312L51.1335 15.6486C51.1243 15.7038 51.1308 15.7604 51.1523 15.8122C51.1738 15.864 51.2094 15.9088 51.2553 15.9416C51.3011 15.9745 51.3553 15.9941 51.4118 15.9982C51.4683 16.0024 51.5248 15.9909 51.5751 15.9651L56.4994 13.4086L61.4226 15.9651C61.4729 15.9914 61.5297 16.0032 61.5865 15.9992C61.6432 15.9952 61.6977 15.9756 61.7438 15.9425C61.7898 15.9094 61.8255 15.8642 61.8468 15.8121C61.8681 15.7599 61.8741 15.7029 61.8642 15.6476L60.9235 10.2322L64.9081 6.39545C64.9903 6.31429 65.0211 6.1956 64.9852 6.08705V6.08806Z" fill="#EF9546"/>
<path d="M88.9852 6.08806C88.9675 6.03458 88.9351 5.98705 88.8916 5.95083C88.848 5.91461 88.795 5.89116 88.7387 5.88313L83.2342 5.09285L80.7725 0.166503C80.7474 0.11649 80.7085 0.074411 80.6605 0.044997C80.6124 0.015583 80.557 0 80.5004 0C80.4439 0 80.3884 0.015583 80.3403 0.044997C80.2923 0.074411 80.2535 0.11649 80.2283 0.166503L77.7646 5.09386L72.2601 5.88415C72.204 5.89239 72.1514 5.91589 72.1082 5.95199C72.0649 5.9881 72.0327 6.0354 72.0151 6.08858C71.9975 6.14177 71.9952 6.19874 72.0086 6.25312C72.0219 6.3075 72.0503 6.35713 72.0906 6.39646L76.0752 10.2312L75.1335 15.6486C75.1243 15.7038 75.1308 15.7604 75.1523 15.8122C75.1738 15.864 75.2094 15.9088 75.2553 15.9416C75.3011 15.9745 75.3553 15.9941 75.4118 15.9982C75.4683 16.0024 75.5248 15.9909 75.5751 15.9651L80.4994 13.4086L85.4226 15.9651C85.4729 15.9914 85.5297 16.0032 85.5865 15.9992C85.6432 15.9952 85.6977 15.9756 85.7438 15.9425C85.7898 15.9094 85.8255 15.8642 85.8468 15.8121C85.8681 15.7599 85.8741 15.7029 85.8642 15.6476L84.9235 10.2322L88.9081 6.39545C88.9903 6.31429 89.0211 6.1956 88.9852 6.08705V6.08806Z" fill="#EF9546"/>
<path d="M112.985 6.08806C112.968 6.03458 112.935 5.98705 112.892 5.95083C112.848 5.91461 112.795 5.89116 112.739 5.88313L107.234 5.09285L104.773 0.166503C104.747 0.11649 104.709 0.074411 104.66 0.044997C104.612 0.015583 104.557 0 104.5 0C104.444 0 104.388 0.015583 104.34 0.044997C104.292 0.074411 104.253 0.11649 104.228 0.166503L101.765 5.09386L96.2601 5.88415C96.204 5.89239 96.1514 5.91589 96.1082 5.95199C96.0649 5.9881 96.0327 6.0354 96.0151 6.08858C95.9975 6.14177 95.9952 6.19874 96.0086 6.25312C96.0219 6.3075 96.0503 6.35713 96.0906 6.39646L100.075 10.2312L99.1335 15.6486C99.1243 15.7038 99.1308 15.7604 99.1523 15.8122C99.1738 15.864 99.2094 15.9088 99.2553 15.9416C99.3011 15.9745 99.3553 15.9941 99.4118 15.9982C99.4683 16.0024 99.5248 15.9909 99.5751 15.9651L104.499 13.4086L109.423 15.9651C109.473 15.9914 109.53 16.0032 109.586 15.9992C109.643 15.9952 109.698 15.9756 109.744 15.9425C109.79 15.9094 109.825 15.8642 109.847 15.8121C109.868 15.7599 109.874 15.7029 109.864 15.6476L108.924 10.2322L112.908 6.39545C112.99 6.31429 113.021 6.1956 112.985 6.08705V6.08806Z" fill="#EF9546"/>
</svg>
